<svg width="266" height="56" viewBox="0 0 266 56" fill="none" xmlns="http://www.w3.org/2000/svg">
<g clip-path="url(#clip0_10_616)">
<path d="M50.6298 34.5583C50.6298 32.021 52.2885 30.2644 54.7765 30.2644C57.304 30.2644 58.9627 31.9429 58.9627 34.5583C58.9627 37.0956 57.2645 38.8522 54.7765 38.8522C52.2885 38.8522 50.6298 37.1737 50.6298 34.5583ZM57.1856 34.5583C57.1856 32.8407 56.2377 31.7478 54.7765 31.7478C53.3153 31.7478 52.3674 32.8407 52.3674 34.5583C52.3674 36.2759 53.3153 37.3689 54.7765 37.3689C56.2377 37.3689 57.1856 36.2759 57.1856 34.5583Z" fill="#020203"/>
<path d="M70.9684 34.558V38.7348H69.3492V34.9093C69.3492 33.8944 68.9148 33.3088 68.1249 33.3088C67.1771 33.3088 66.5057 33.9724 66.5057 34.9093V38.6957H64.8865V34.8702C64.8865 33.8553 64.4521 33.2698 63.6622 33.2698C62.7144 33.2698 62.043 33.9334 62.043 34.8702V38.6567H60.4238V32.1378H61.8456L61.9246 33.0746C62.3985 32.45 63.1883 32.0597 64.1361 32.0597C65.084 32.0597 65.8343 32.5281 66.1898 33.3088C66.6637 32.5281 67.493 32.0597 68.5593 32.0597C70.0206 32.0206 70.9684 33.0356 70.9684 34.558Z" fill="#020203"/>
<path d="M79.4199 35.4562C79.4199 37.486 78.2351 38.8523 76.5369 38.8523C75.5891 38.8523 74.7992 38.4619 74.3253 37.7983L74.2463 38.7351H72.8246V29.9521H74.4438V33.036C74.9572 32.4114 75.7076 32.0601 76.5764 32.0601C78.2746 32.021 79.4199 33.3873 79.4199 35.4562ZM77.8007 35.4562C77.8007 34.168 77.1293 33.3482 76.063 33.3482C74.9967 33.3482 74.3253 34.168 74.3253 35.4562C74.3253 36.7443 74.9572 37.5641 76.063 37.5641C77.1293 37.525 77.8007 36.7053 77.8007 35.4562Z" fill="#020203"/>
<path d="M87.0026 32.1377V38.7347H85.5808L85.5018 37.7588C85.0279 38.4224 84.1986 38.8518 83.2112 38.8518C81.7895 38.8518 80.7627 37.8369 80.7627 36.3145V32.1377H82.3819V35.9632C82.3819 36.9781 82.8558 37.5636 83.6852 37.5636C84.633 37.5636 85.3833 36.9 85.3833 35.9632V32.1767H87.0026V32.1377Z" fill="#020203"/>
<path d="M95.059 29.9521V38.7742H93.6373L93.5583 37.7983C93.0449 38.5009 92.2551 38.8913 91.3467 38.8913C89.609 38.8913 88.4637 37.5641 88.4637 35.4952C88.4637 33.4653 89.6485 32.0991 91.3467 32.0991C92.2551 32.0991 92.9659 32.4114 93.4793 33.036V29.9912H95.059V29.9521ZM93.5188 35.4562C93.5188 34.168 92.8869 33.3482 91.7811 33.3482C90.7148 33.3482 90.0435 34.168 90.0435 35.4562C90.0435 36.7443 90.7148 37.5641 91.7811 37.5641C92.8869 37.525 93.5188 36.7053 93.5188 35.4562Z" fill="#020203"/>
<path d="M96.2833 37.8373L97.1127 36.7053C97.6656 37.1737 98.3764 37.486 99.2848 37.486C99.9956 37.486 100.509 37.2908 100.509 36.8614C100.509 36.5491 100.233 36.3149 99.0478 36.0807C97.3101 35.6513 96.5598 35.0267 96.5598 34.0118C96.5598 32.8017 97.6261 32.021 99.2848 32.021C100.272 32.021 101.101 32.2942 101.931 32.8407L101.062 34.0118C100.509 33.5824 99.9167 33.3482 99.1663 33.3482C98.5344 33.3482 98.1 33.5824 98.1 33.9337C98.1 34.2851 98.3764 34.4802 99.4033 34.7144C101.338 35.1829 102.049 35.7294 102.049 36.8224C102.049 38.1105 100.983 38.8522 99.2453 38.8522C98.0605 38.8522 96.9942 38.4619 96.2833 37.8373Z" fill="#020203"/>
<path d="M113.897 34.558V38.7348H112.278V34.9093C112.278 33.8944 111.843 33.3088 111.054 33.3088C110.106 33.3088 109.434 33.9724 109.434 34.9093V38.6957H107.815V34.8702C107.815 33.8553 107.381 33.2698 106.591 33.2698C105.643 33.2698 104.972 33.9334 104.972 34.8702V38.6567H103.353V32.1378H104.774L104.853 33.0746C105.327 32.45 106.117 32.0597 107.065 32.0597C108.013 32.0597 108.763 32.5281 109.118 33.3088C109.592 32.5281 110.422 32.0597 111.488 32.0597C112.949 32.0206 113.897 33.0356 113.897 34.558Z" fill="#020203"/>
<path d="M121.677 37.3689V38.7351C121.559 38.7741 121.401 38.7741 121.085 38.7741C120.255 38.7741 119.821 38.4619 119.742 37.7592C119.268 38.4228 118.399 38.8522 117.412 38.8522C116.109 38.8522 115.24 38.0715 115.24 36.9004C115.24 35.2219 116.859 34.9096 118.123 34.7535C118.992 34.6364 119.544 34.5193 119.544 34.0899C119.544 33.6215 119.071 33.3092 118.241 33.3092C117.53 33.3092 116.859 33.5824 116.346 34.1289L115.398 33.153C116.188 32.4114 117.175 32.021 118.36 32.021C120.058 32.021 121.045 32.8407 121.045 34.207V36.9785C121.045 37.2518 121.164 37.3689 121.44 37.3689H121.677ZM119.465 36.1978V35.5342C119.189 35.6903 118.834 35.7684 118.241 35.8465C117.491 35.9636 116.74 36.0807 116.74 36.8224C116.74 37.3298 117.096 37.6421 117.688 37.6421C118.676 37.6031 119.465 36.9785 119.465 36.1978Z" fill="#020203"/>
<path d="M129.26 34.5583V38.7351H127.641V34.9096C127.641 33.8947 127.167 33.3092 126.337 33.3092C125.39 33.3092 124.639 33.9728 124.639 34.9096V38.6961H123.02V32.1381H124.442L124.521 33.114C124.995 32.4504 125.824 32.021 126.811 32.021C128.273 32.021 129.26 33.0359 129.26 34.5583Z" fill="#020203"/>
<path d="M134.196 35.4561C134.196 33.4263 135.618 32.0601 137.672 32.0601C139.765 32.0601 141.147 33.3873 141.147 35.4561C141.147 37.486 139.725 38.8522 137.672 38.8522C135.539 38.8522 134.196 37.525 134.196 35.4561ZM139.449 35.4561C139.449 34.168 138.738 33.3482 137.632 33.3482C136.526 33.3482 135.816 34.1289 135.816 35.4561C135.816 36.7443 136.526 37.5641 137.632 37.5641C138.778 37.525 139.449 36.7443 139.449 35.4561Z" fill="#020203"/>
<path d="M144.622 31.7867V32.138H146.479V33.4652H144.622V38.735H143.003V33.4652H141.661V32.138H143.003V31.8257C143.003 30.5766 143.912 29.7568 145.294 29.7568C146.084 29.7568 146.716 29.952 147.268 30.3424L146.518 31.5134C146.123 31.2402 145.728 31.084 145.294 31.084C144.859 31.045 144.622 31.3183 144.622 31.7867Z" fill="#020203"/>
<path d="M151.415 35.3779V30.3813H153.153V35.3389C153.153 36.588 153.903 37.3297 155.127 37.3297C156.391 37.3297 157.102 36.588 157.102 35.3389V30.3813H158.84V35.4169C158.84 37.5248 157.418 38.8911 155.127 38.8911C152.837 38.8521 151.415 37.5248 151.415 35.3779Z" fill="#020203"/>
<path d="M166.936 37.3689V38.7742C166.659 38.8132 166.501 38.8132 166.225 38.8132C165.277 38.8132 164.764 38.3448 164.764 37.447V36.1588H162.473V38.8132H160.854V29.9521H162.473V34.6754H163.54L165.159 32.1772H166.857L165.119 34.7145H166.304V37.0566C166.304 37.2518 166.422 37.3689 166.62 37.3689H166.936Z" fill="#020203"/>
<path d="M172.702 32.0991L172.662 33.5824C172.346 33.5434 171.991 33.5044 171.675 33.5044C170.648 33.5044 169.937 34.0509 169.937 35.1048V38.7351H168.318V32.1381H169.74L169.819 33.1921C170.293 32.4895 171.122 32.0601 172.109 32.0601C172.307 32.0601 172.504 32.0601 172.702 32.0991Z" fill="#020203"/>
<path d="M179.574 37.3689V38.7351C179.455 38.7741 179.297 38.7741 178.981 38.7741C178.152 38.7741 177.717 38.4619 177.638 37.7592C177.164 38.4228 176.296 38.8522 175.308 38.8522C174.005 38.8522 173.136 38.0715 173.136 36.9004C173.136 35.2219 174.755 34.9096 176.019 34.7535C176.888 34.6364 177.441 34.5193 177.441 34.0899C177.441 33.6215 176.967 33.3092 176.138 33.3092C175.427 33.3092 174.755 33.5824 174.242 34.1289L173.294 33.153C174.084 32.4114 175.071 32.021 176.256 32.021C177.954 32.021 178.942 32.8407 178.942 34.207V36.9785C178.942 37.2518 179.06 37.3689 179.337 37.3689H179.574ZM177.362 36.1978V35.5342C177.086 35.6903 176.73 35.7684 176.138 35.8465C175.387 35.9636 174.637 36.0807 174.637 36.8224C174.637 37.3298 174.992 37.6421 175.585 37.6421C176.572 37.6031 177.362 36.9785 177.362 36.1978Z" fill="#020203"/>
<path d="M180.995 29.835H182.733V31.2402H180.995V29.835ZM181.074 32.1381H182.694V38.7351H181.074V32.1381Z" fill="#020203"/>
<path d="M190.947 34.5583V38.7351H189.328V34.9096C189.328 33.8947 188.854 33.3092 188.025 33.3092C187.077 33.3092 186.327 33.9728 186.327 34.9096V38.6961H184.708V32.1381H186.129L186.208 33.114C186.682 32.4504 187.512 32.021 188.499 32.021C189.96 32.021 190.947 33.0359 190.947 34.5583Z" fill="#020203"/>
<path d="M195.766 37.525C196.634 37.525 197.266 37.2127 197.661 36.7443L198.648 37.6812C198.017 38.3448 197.069 38.8522 195.766 38.8522C193.475 38.8522 192.29 37.4079 192.29 35.4561C192.29 33.4263 193.633 32.0601 195.647 32.0601C197.622 32.0601 198.925 33.3873 198.925 35.4561C198.925 35.6123 198.925 35.7294 198.885 35.9636H193.909C194.067 36.9395 194.739 37.525 195.766 37.525ZM193.909 34.7925H197.306C197.108 33.8557 196.516 33.3092 195.647 33.3092C194.739 33.3092 194.107 33.8557 193.909 34.7925Z" fill="#020203"/>
<path d="M50.6298 21.208C50.6298 18.6707 52.2885 16.9141 54.7765 16.9141C57.304 16.9141 58.9627 18.5926 58.9627 21.208C58.9627 23.7453 57.2645 25.5019 54.7765 25.5019C52.2885 25.5019 50.6298 23.8234 50.6298 21.208ZM57.1856 21.208C57.1856 19.4904 56.2377 18.3974 54.7765 18.3974C53.3153 18.3974 52.3674 19.4904 52.3674 21.208C52.3674 22.9255 53.3153 24.0185 54.7765 24.0185C56.2377 24.0185 57.1856 22.9255 57.1856 21.208Z" fill="#020203"/>
<path d="M68.7569 25.3848H67.2167V20.5444L65.4395 25.3848H63.8203L62.0432 20.5444V25.3848H60.5029V18.7878H62.912L64.6497 23.5892L66.3874 18.7878H68.7569V25.3848Z" fill="#020203"/>
<path d="M77.0108 22.4572C77.0108 24.2529 75.6681 25.502 73.6934 25.502C71.6003 25.502 70.3365 24.0577 70.3365 21.6765C70.3365 19.1782 71.2844 17.812 73.338 17.3826L74.9177 17.0313C75.1547 16.9922 75.3126 16.8751 75.3521 16.6019L75.4311 16.3677L76.9318 16.6409L76.8923 16.8751C76.7739 17.7339 76.3 18.2023 75.4311 18.3975L73.4565 18.7879C72.2717 19.0221 71.7583 19.5686 71.6793 20.6225C72.1532 19.9199 72.9826 19.5296 74.0884 19.5296C75.826 19.5296 77.0108 20.7397 77.0108 22.4572ZM75.3521 22.4572C75.3521 21.3642 74.7202 20.7006 73.6934 20.7006C72.6271 20.7006 71.9952 21.3642 71.9952 22.4572C71.9952 23.5112 72.7061 24.2138 73.6934 24.2138C74.7202 24.1748 75.3521 23.5112 75.3521 22.4572Z" fill="#020203"/>
<path d="M84.5936 18.7878L82.4215 25.2287C81.8291 26.9853 81.0392 27.727 79.8149 27.727C78.5512 27.727 77.7218 26.9072 77.7218 25.6971C77.7218 25.0726 77.9588 24.5651 78.3932 24.0576H79.341L77.3269 18.7878H79.0646L80.9207 24.0186H81.3552L82.9349 18.7878H84.5936ZM80.7628 25.541L80.8813 25.2287H79.262C79.1831 25.3848 79.1436 25.541 79.1436 25.7362C79.1436 26.1656 79.42 26.4388 79.8544 26.4388C80.2889 26.3998 80.5653 26.0875 80.7628 25.541Z" fill="#020203"/>
<path d="M92.4525 23.9796V26.9463H90.9123V25.4239H86.4102V26.9463H84.9094V23.9796H85.6993C85.8178 23.4721 85.8572 22.6914 85.8572 21.5594V18.7878H91.5837V23.9796H92.4525ZM89.9645 24.0186V20.1931H87.3975V21.6374C87.3975 22.5743 87.358 23.394 87.2395 24.0186H89.9645Z" fill="#020203"/>
<path d="M93.1636 22.1056C93.1636 20.0757 94.5458 18.7095 96.56 18.7095C98.0607 18.7095 99.2455 19.4511 99.6009 20.7003L98.1002 21.1687C97.8632 20.4661 97.3103 20.0367 96.56 20.0367C95.4936 20.0367 94.8223 20.8564 94.8223 22.1446C94.8223 23.4328 95.4936 24.2525 96.56 24.2525C97.3103 24.2525 97.8632 23.8231 98.1397 23.1205L99.6404 23.5889C99.285 24.8381 98.1002 25.5797 96.5994 25.5797C94.5458 25.5017 93.1636 24.1354 93.1636 22.1056Z" fill="#020203"/>
<path d="M109.158 25.3848H107.618V20.5444L105.841 25.3848H104.221L102.444 20.5444V25.3848H100.865V18.7878H103.274L105.051 23.5892L106.788 18.7878H109.158V25.3848Z" fill="#020203"/>
<path d="M117.017 24.0183V25.3845C116.899 25.4236 116.741 25.4236 116.425 25.4236C115.595 25.4236 115.161 25.1113 115.082 24.4086C114.608 25.0722 113.739 25.5016 112.752 25.5016C111.449 25.5016 110.58 24.7209 110.58 23.5499C110.58 21.8713 112.199 21.559 113.463 21.4029C114.332 21.2858 114.884 21.1687 114.884 20.7393C114.884 20.2709 114.411 19.9586 113.581 19.9586C112.87 19.9586 112.199 20.2318 111.686 20.7783L110.738 19.8024C111.528 19.0608 112.515 18.6704 113.7 18.6704C115.398 18.6704 116.385 19.4902 116.385 20.8564V23.6279C116.385 23.9012 116.504 24.0183 116.78 24.0183H117.017ZM114.805 22.8472V22.1836C114.529 22.3397 114.174 22.4178 113.581 22.4959C112.831 22.613 112.08 22.7301 112.08 23.4718C112.08 23.9792 112.436 24.2915 113.028 24.2915C114.055 24.2525 114.805 23.6279 114.805 22.8472Z" fill="#020203"/>
<path d="M124.521 18.7878V25.3848H122.901V22.7695H120.018V25.3848H118.399V18.7878H120.018V21.2861H122.901V18.7878H124.521Z" fill="#020203"/>
<path d="M137.277 17.0312L134.947 23.2769C134.394 24.7993 133.486 25.541 132.222 25.541C130.879 25.541 129.971 24.6822 129.971 23.394C129.971 22.6914 130.247 22.0668 130.761 21.6374H131.629L129.141 17.0703H131.037L133.367 21.6374H133.92L135.46 17.0703H137.277V17.0312ZM133.367 23.2769L133.565 22.8085H131.708C131.59 22.9646 131.511 23.1208 131.511 23.355C131.511 23.8625 131.787 24.1748 132.301 24.1748C132.814 24.1748 133.13 23.8625 133.367 23.2769Z" fill="#020203"/>
<path d="M144.543 24.0183V25.4236C144.267 25.4626 144.109 25.4626 143.833 25.4626C142.885 25.4626 142.371 24.9942 142.371 24.0964V22.8082H140.081V25.4626H138.462V16.6016H140.081V21.3249H141.147L142.766 18.8266H144.464L142.727 21.3639H143.912V23.706C143.912 23.9012 144.03 24.0183 144.227 24.0183H144.543Z" fill="#020203"/>
<path d="M152.561 22.1055C152.561 24.1354 151.376 25.5016 149.678 25.5016C148.769 25.5016 148.058 25.1893 147.545 24.5648V27.6095H145.926V18.7875H147.348L147.427 19.7634C147.94 19.0608 148.73 18.6704 149.638 18.6704C151.415 18.6704 152.561 20.0367 152.561 22.1055ZM150.902 22.1055C150.902 20.8174 150.23 19.9976 149.164 19.9976C148.098 19.9976 147.427 20.8174 147.427 22.1055C147.427 23.3937 148.058 24.2135 149.164 24.2135C150.27 24.2135 150.902 23.3547 150.902 22.1055Z" fill="#020203"/>
<path d="M159.788 24.0183V25.3845C159.669 25.4236 159.511 25.4236 159.195 25.4236C158.366 25.4236 157.932 25.1113 157.853 24.4086C157.379 25.0722 156.51 25.5016 155.522 25.5016C154.219 25.5016 153.35 24.7209 153.35 23.5499C153.35 21.8713 154.97 21.559 156.233 21.4029C157.102 21.2858 157.655 21.1687 157.655 20.7393C157.655 20.2709 157.181 19.9586 156.352 19.9586C155.641 19.9586 154.97 20.2318 154.456 20.7783L153.508 19.8024C154.298 19.0608 155.285 18.6704 156.47 18.6704C158.168 18.6704 159.156 19.4902 159.156 20.8564V23.6279C159.156 23.9012 159.274 24.0183 159.551 24.0183H159.788ZM157.576 22.8472V22.1836C157.3 22.3397 156.944 22.4178 156.352 22.4959C155.601 22.613 154.851 22.7301 154.851 23.4718C154.851 23.9792 155.207 24.2915 155.799 24.2915C156.826 24.2525 157.576 23.6279 157.576 22.8472Z" fill="#020203"/>
<path d="M160.025 16.5237H161.683V17.929H160.025V16.5237ZM161.288 18.7877H162.908V25.3847H161.288V18.7877ZM162.513 16.5237H164.171V17.929H162.513V16.5237Z" fill="#020203"/>
<path d="M171.083 18.7878V25.3848H169.463V22.7695H166.58V25.3848H164.961V18.7878H166.58V21.2861H169.463V18.7878H171.083Z" fill="#020203"/>
<path d="M179.139 18.7878V25.3848H177.559V21.0519L174.597 25.3848H172.978V18.7878H174.558V23.1598L177.52 18.7878H179.139Z" fill="#020203"/>
<path d="M40.48 17.6948C40.3221 17.4606 40.2036 17.1873 40.0456 16.9531H38.1105C38.3079 17.2654 38.5054 17.5777 38.7029 17.89C40.559 20.9347 41.5463 24.4089 41.5463 28.0002H43.1655C43.205 24.3308 42.2572 20.8176 40.48 17.6948Z" fill="#265FA3"/>
<path d="M21.6025 8.28698C22.6294 8.28698 23.6957 8.36505 24.7225 8.52119L24.9594 6.92074C23.8536 6.76459 22.7083 6.68652 21.6025 6.68652C9.67573 6.68652 0 16.2502 0 27.9999H1.6192C1.6192 17.148 10.5841 8.28698 21.6025 8.28698Z" fill="#265FA3"/>
<path d="M43.2051 28.0002H41.5859C41.5859 38.8521 32.621 47.7132 21.6025 47.7132C10.5841 47.7132 1.6192 38.8912 1.6192 28.0002H0C0 39.7499 9.67573 49.3136 21.6025 49.3136C33.5294 49.3136 43.2051 39.7499 43.2051 28.0002Z" fill="#FCC010"/>
<path d="M21.1681 15.7429C21.6815 16.0162 23.4586 17.1872 23.4586 19.2561C23.4586 21.0908 20.4572 26.5948 21.6025 28.0001L29.0666 18.8267C29.0666 18.8267 30.9228 21.0518 29.817 22.9255C28.6717 24.8772 25.7887 27.1803 24.6434 28.8979C23.9326 29.9519 24.288 30.5374 24.288 30.5374L33.3318 25.6579C33.3318 25.6579 34.0427 27.8049 32.3445 29.3273C30.5278 30.9277 26.2626 31.5913 26.2626 33.2699H32.463C32.463 33.2699 31.8311 35.1436 30.6068 35.3778C29.5405 35.612 27.2894 34.9874 26.2231 35.9633C25.0778 36.9782 23.8141 40.2572 20.0228 40.2572C17.4557 40.2572 15.5206 38.4616 14.2568 36.0804C12.8351 33.3479 11.2554 32.0207 9.59668 31.6694C9.59668 31.6694 10.505 29.6005 12.8351 29.6005C16.0735 29.6005 17.4557 34.8313 19.8648 34.8313C20.5757 34.8313 21.326 34.48 21.326 33.465C21.326 32.3721 19.7068 31.4352 19.2724 31.1229C18.2061 30.3812 17.3373 29.2102 17.8902 27.2584L21.1681 15.7429Z" fill="#265FA3"/>
<path d="M36.5703 6.68652C36.2543 7.03784 36.0568 7.50627 36.0568 7.9747C36.0568 9.06769 36.2148 10.1607 36.2148 11.2537C36.2543 12.2686 35.9384 13.2445 35.5434 14.1813C35.425 14.4546 35.267 14.6888 35.1485 14.9621L34.7536 14.884C34.3982 14.8059 34.1612 14.4546 34.2402 14.1033C34.3192 13.791 34.5956 13.5568 34.8721 13.5568H35.03L34.7141 10.8633C34.5956 9.65322 34.0032 8.6383 33.0554 7.93566C32.8974 7.81855 32.7395 7.70145 32.542 7.62338V17.148H34.7536C34.9116 18.0459 35.425 18.8266 36.0963 19.334C36.2543 19.4511 36.4123 19.6073 36.4913 19.7634C36.6097 19.6073 36.7282 19.4511 36.8862 19.334C37.5971 18.7875 38.071 18.0068 38.229 17.148H40.4405V7.66241C40.2826 7.74048 40.0851 7.85759 39.9271 7.9747C39.0188 8.6383 38.3869 9.69226 38.2684 10.9024L37.9525 13.5958H38.1105C38.4264 13.5958 38.7029 13.83 38.7424 14.1423C38.8213 14.4936 38.5844 14.8449 38.229 14.923L37.834 15.0011C37.7155 14.7669 37.5576 14.4936 37.4391 14.2204C37.0442 13.2835 36.7677 12.3076 36.7677 11.2927C36.7677 10.1997 36.9257 9.10673 36.9257 8.01373C37.0837 7.50627 36.8862 7.03784 36.5703 6.68652ZM33.2529 9.02866C33.6873 9.53612 33.9637 10.1607 34.0427 10.8243L34.3192 13.0493C33.9637 13.2055 33.7268 13.5177 33.6083 13.9081H33.2134V9.02866H33.2529ZM39.8876 9.02866V13.8691H39.4927C39.4137 13.4787 39.1373 13.2055 38.7818 13.0103L39.0583 10.7853C39.1768 10.1607 39.4927 9.53612 39.8876 9.02866ZM36.5703 13.4787C36.7677 14.0642 37.0047 14.6107 37.2811 15.1182C37.0047 15.1963 36.7282 15.3914 36.5703 15.5866C36.3728 15.3524 36.1358 15.1963 35.8199 15.1182C36.1358 14.6107 36.4123 14.0642 36.5703 13.4787ZM33.2529 14.5717H33.6478C33.7663 15.0401 34.1217 15.3914 34.5956 15.5086L34.9116 15.5866C34.8326 15.8989 34.7931 16.2112 34.7931 16.5625H33.2924V14.5717H33.2529ZM39.5322 14.5717H39.9271V16.5235H38.4264C38.4264 16.1722 38.3869 15.8599 38.3079 15.5476L38.6239 15.4695C39.0583 15.3524 39.4137 15.0011 39.5322 14.5717ZM35.5434 15.7037C35.9384 15.7428 36.2543 16.0941 36.2543 16.5235H35.425C35.425 16.2502 35.4645 15.977 35.5434 15.7037ZM37.6366 15.7037C37.7155 15.977 37.755 16.2502 37.755 16.5235H36.9257C36.9257 16.0941 37.2021 15.7818 37.6366 15.7037ZM35.5039 17.1871H36.2543V18.5533C35.8594 18.202 35.6224 17.6945 35.5039 17.1871ZM36.9257 17.1871H37.6761C37.5576 17.7336 37.2811 18.202 36.9257 18.5533V17.1871Z" fill="#265FA3"/>
<path d="M52.0232 52.6272V45.1832H58.3702V52.6272H56.8618V46.5544H53.5316V52.6272H52.0232ZM60.2508 54.5861V46.7503H61.5046L61.5829 47.6319C61.8082 47.3152 62.089 47.0736 62.4253 46.9071C62.7616 46.7373 63.1338 46.6524 63.5419 46.6524C64.3059 46.6524 64.918 46.9283 65.3784 47.4801C65.8387 48.0318 66.0689 48.7681 66.0689 49.6888C66.0689 50.5964 65.8338 51.3294 65.3637 51.8877C64.8968 52.446 64.2895 52.7251 63.5419 52.7251C62.7485 52.7251 62.1216 52.4444 61.6613 51.8828V54.5861H60.2508ZM62.0041 48.3322C61.7364 48.6652 61.6025 49.1174 61.6025 49.6888C61.6025 50.2601 61.7364 50.714 62.0041 51.0502C62.2751 51.3833 62.644 51.5498 63.1109 51.5498C63.581 51.5498 63.9532 51.3816 64.2275 51.0453C64.5018 50.7091 64.6389 50.2569 64.6389 49.6888C64.6389 49.1207 64.5018 48.6685 64.2275 48.3322C63.9532 47.9959 63.581 47.8278 63.1109 47.8278C62.644 47.8278 62.2751 47.9959 62.0041 48.3322ZM66.9309 49.6888C66.9309 48.7844 67.2018 48.053 67.7438 47.4947C68.2858 46.9332 69.0008 46.6524 69.8889 46.6524C70.7606 46.6524 71.4577 46.9283 71.9801 47.4801C72.5057 48.0318 72.7685 48.7681 72.7685 49.6888C72.7685 49.8585 72.7489 50.0087 72.7098 50.1393H68.3413C68.4099 50.5834 68.5862 50.9294 68.8702 51.1776C69.1575 51.4257 69.5297 51.5498 69.9868 51.5498C70.6953 51.5498 71.2503 51.3147 71.6519 50.8446L72.5335 51.6869C71.9294 52.3791 71.0806 52.7251 69.9868 52.7251C69.3306 52.7251 68.769 52.5929 68.3021 52.3285C67.8385 52.0607 67.4941 51.7016 67.2688 51.251C67.0435 50.8005 66.9309 50.2797 66.9309 49.6888ZM68.3609 49.1011H71.3385C71.2601 48.6799 71.0936 48.3567 70.839 48.1314C70.5876 47.9029 70.2709 47.7886 69.8889 47.7886C69.4808 47.7886 69.1428 47.9045 68.8751 48.1363C68.6107 48.3648 68.4392 48.6864 68.3609 49.1011ZM73.3366 51.3539H74.0418C74.1333 50.9327 74.179 50.2144 74.179 49.199V46.7503H79.1939V51.3539H79.9775V53.9985H78.6258V52.6272H74.6883V53.9985H73.3366V51.3539ZM75.4131 51.3931H77.803V47.9845H75.5502V49.2578C75.5502 50.1524 75.5045 50.8641 75.4131 51.3931ZM81.4124 51.8877C80.8606 51.3294 80.5847 50.5964 80.5847 49.6888C80.5847 48.7811 80.8606 48.0481 81.4124 47.4898C81.9642 46.9315 82.6874 46.6524 83.5819 46.6524C84.2447 46.6524 84.8161 46.8091 85.296 47.1225C85.776 47.4327 86.0992 47.8637 86.2657 48.4155L84.914 48.8268C84.8063 48.5101 84.6365 48.2653 84.4047 48.0922C84.1729 47.9159 83.8921 47.8278 83.5624 47.8278C83.0922 47.8278 82.72 47.9959 82.4458 48.3322C82.1715 48.6685 82.0344 49.1207 82.0344 49.6888C82.0344 50.2569 82.1715 50.7091 82.4458 51.0453C82.72 51.3816 83.0922 51.5498 83.5624 51.5498C83.8888 51.5498 84.168 51.4633 84.3998 51.2902C84.6349 51.1172 84.8128 50.8707 84.9336 50.5507L86.2657 50.9621C86.0992 51.5139 85.776 51.9465 85.296 52.2599C84.8161 52.5701 84.2447 52.7251 83.5819 52.7251C82.6874 52.7251 81.9642 52.446 81.4124 51.8877ZM86.5987 48.0237V46.7503H92.1426V48.0237H90.0857V52.6272H88.6752V48.0237H86.5987ZM92.5539 51.0013C92.5539 50.7956 92.5817 50.6062 92.6372 50.4332C92.6927 50.2601 92.7645 50.1132 92.8527 49.9924C92.9441 49.8716 93.06 49.7622 93.2004 49.6643C93.3408 49.5663 93.4795 49.488 93.6167 49.4292C93.7538 49.3672 93.9138 49.3117 94.0966 49.2627C94.2795 49.2137 94.4427 49.1778 94.5864 49.155C94.73 49.1288 94.8949 49.1043 95.081 49.0815C95.2246 49.0619 95.3438 49.0456 95.4385 49.0325C95.5364 49.0162 95.6377 48.9966 95.7421 48.9738C95.8466 48.9509 95.9315 48.9264 95.9968 48.9003C96.0621 48.8709 96.1225 48.8383 96.178 48.8023C96.2335 48.7632 96.2727 48.7191 96.2955 48.6701C96.3217 48.6179 96.3347 48.5591 96.3347 48.4938C96.3347 48.2849 96.2319 48.1183 96.0262 47.9943C95.8238 47.8702 95.5479 47.8082 95.1985 47.8082C94.5717 47.8082 94.0166 48.0498 93.5334 48.533L92.6911 47.6515C93.3963 46.9854 94.2582 46.6524 95.2769 46.6524C96.018 46.6524 96.5975 46.8271 97.0155 47.1764C97.4366 47.5225 97.6472 48.0008 97.6472 48.6113V51.06C97.6472 51.2951 97.7648 51.4126 97.9998 51.4126H98.2349V52.6272C98.1043 52.6533 97.9345 52.6664 97.7256 52.6664C97.3632 52.6664 97.0857 52.5945 96.893 52.4509C96.7004 52.3072 96.5796 52.0787 96.5306 51.7653C96.3119 52.0624 96.0213 52.2974 95.6589 52.4705C95.2965 52.6403 94.9014 52.7251 94.4737 52.7251C93.9024 52.7251 93.4387 52.5668 93.0829 52.2501C92.7303 51.9334 92.5539 51.5171 92.5539 51.0013ZM93.9252 50.8837C93.9252 51.109 93.9987 51.2869 94.1456 51.4175C94.2958 51.5449 94.5031 51.6085 94.7676 51.6085C95.1887 51.6085 95.5479 51.4861 95.845 51.2412C96.1454 50.9931 96.2955 50.6976 96.2955 50.3548V49.7475C96.129 49.8455 95.7764 49.9369 95.2377 50.0218C94.8002 50.1001 94.5064 50.1736 94.3562 50.2422C94.0689 50.376 93.9252 50.5899 93.9252 50.8837ZM99.4495 52.6272V46.7503H102.133C102.835 46.7503 103.376 46.8793 103.754 47.1372C104.136 47.3919 104.327 47.7788 104.327 48.2979C104.327 48.6113 104.252 48.8807 104.102 49.106C103.952 49.3313 103.746 49.4994 103.485 49.6104C103.808 49.7182 104.055 49.8928 104.224 50.1344C104.397 50.3728 104.484 50.6682 104.484 51.0209C104.484 51.5367 104.296 51.9334 103.921 52.2109C103.545 52.4884 103.021 52.6272 102.349 52.6272H99.4495ZM100.782 51.5498H102.212C102.483 51.5498 102.693 51.4877 102.843 51.3637C102.997 51.2363 103.074 51.0633 103.074 50.8446C103.074 50.6193 102.994 50.443 102.834 50.3156C102.677 50.185 102.456 50.1197 102.172 50.1197H100.782V51.5498ZM100.782 49.1207H102.133C102.421 49.1207 102.629 49.0684 102.76 48.964C102.891 48.8595 102.956 48.6897 102.956 48.4546C102.956 48.2489 102.889 48.0906 102.755 47.9796C102.621 47.8653 102.427 47.8082 102.172 47.8082H100.782V49.1207ZM105.777 52.6272V46.7503H107.187V48.9835H109.734V46.7503H111.144V52.6272H109.734V50.2765H107.187V52.6272H105.777ZM112.829 52.6272V46.7503H114.22V50.6291L116.806 46.7503H118.216V52.6272H116.845V48.7485L114.24 52.6272H112.829ZM119.921 52.6272V46.7503H121.331V51.3539H123.819V46.7503H125.229V51.3539H126.013V53.9985H124.661V52.6272H119.921ZM126.385 48.0237V46.7503H131.929V48.0237H129.872V52.6272H128.462V48.0237H126.385ZM132.967 52.6272V46.7503H135.651C136.353 46.7503 136.893 46.8793 137.272 47.1372C137.654 47.3919 137.845 47.7788 137.845 48.2979C137.845 48.6113 137.77 48.8807 137.62 49.106C137.469 49.3313 137.264 49.4994 137.003 49.6104C137.326 49.7182 137.572 49.8928 137.742 50.1344C137.915 50.3728 138.002 50.6682 138.002 51.0209C138.002 51.5367 137.814 51.9334 137.438 52.2109C137.063 52.4884 136.539 52.6272 135.866 52.6272H132.967ZM134.299 51.5498H135.729C136 51.5498 136.211 51.4877 136.361 51.3637C136.514 51.2363 136.591 51.0633 136.591 50.8446C136.591 50.6193 136.511 50.443 136.351 50.3156C136.194 50.185 135.974 50.1197 135.69 50.1197H134.299V51.5498ZM134.299 49.1207H135.651C135.938 49.1207 136.147 49.0684 136.278 48.964C136.408 48.8595 136.474 48.6897 136.474 48.4546C136.474 48.2489 136.407 48.0906 136.273 47.9796C136.139 47.8653 135.945 47.8082 135.69 47.8082H134.299V49.1207ZM138.844 49.6888C138.844 48.7811 139.123 48.0481 139.681 47.4898C140.243 46.9315 140.976 46.6524 141.88 46.6524C142.801 46.6524 143.537 46.9283 144.089 47.4801C144.641 48.0318 144.917 48.7681 144.917 49.6888C144.917 50.5964 144.636 51.3294 144.074 51.8877C143.516 52.446 142.785 52.7251 141.88 52.7251C140.96 52.7251 140.223 52.4493 139.672 51.8975C139.12 51.3457 138.844 50.6095 138.844 49.6888ZM140.72 48.3273C140.436 48.6571 140.294 49.1109 140.294 49.6888C140.294 50.2667 140.436 50.7221 140.72 51.0551C141.004 51.3849 141.391 51.5498 141.88 51.5498C142.37 51.5498 142.757 51.3849 143.041 51.0551C143.325 50.7221 143.467 50.2667 143.467 49.6888C143.467 49.1109 143.325 48.6571 143.041 48.3273C142.757 47.9943 142.37 47.8278 141.88 47.8278C141.391 47.8278 141.004 47.9943 140.72 48.3273ZM149.324 52.6272V46.7503H152.008C152.71 46.7503 153.25 46.8793 153.629 47.1372C154.011 47.3919 154.202 47.7788 154.202 48.2979C154.202 48.6113 154.127 48.8807 153.977 49.106C153.827 49.3313 153.621 49.4994 153.36 49.6104C153.683 49.7182 153.93 49.8928 154.099 50.1344C154.272 50.3728 154.359 50.6682 154.359 51.0209C154.359 51.5367 154.171 51.9334 153.796 52.2109C153.42 52.4884 152.896 52.6272 152.224 52.6272H149.324ZM150.656 51.5498H152.086C152.357 51.5498 152.568 51.4877 152.718 51.3637C152.872 51.2363 152.948 51.0633 152.948 50.8446C152.948 50.6193 152.868 50.443 152.708 50.3156C152.552 50.185 152.331 50.1197 152.047 50.1197H150.656V51.5498ZM150.656 49.1207H152.008C152.295 49.1207 152.504 49.0684 152.635 48.964C152.766 48.8595 152.831 48.6897 152.831 48.4546C152.831 48.2489 152.764 48.0906 152.63 47.9796C152.496 47.8653 152.302 47.8082 152.047 47.8082H150.656V49.1207ZM158.982 52.6272V45.1832H162.136C162.995 45.1832 163.669 45.3938 164.159 45.8149C164.652 46.2329 164.898 46.8058 164.898 47.5339C164.898 48.2685 164.653 48.8448 164.163 49.2627C163.674 49.6773 162.998 49.8847 162.136 49.8847H160.49V52.6272H158.982ZM160.49 48.6701H161.96C162.42 48.6701 162.769 48.5787 163.008 48.3959C163.249 48.2098 163.37 47.9355 163.37 47.5731C163.37 46.8287 162.9 46.4565 161.96 46.4565H160.49V48.6701ZM165.486 49.6888C165.486 48.7844 165.757 48.053 166.299 47.4947C166.841 46.9332 167.556 46.6524 168.444 46.6524C169.315 46.6524 170.013 46.9283 170.535 47.4801C171.061 48.0318 171.323 48.7681 171.323 49.6888C171.323 49.8585 171.304 50.0087 171.265 50.1393H166.896C166.965 50.5834 167.141 50.9294 167.425 51.1776C167.712 51.4257 168.085 51.5498 168.542 51.5498C169.25 51.5498 169.805 51.3147 170.207 50.8446L171.088 51.6869C170.484 52.3791 169.635 52.7251 168.542 52.7251C167.885 52.7251 167.324 52.5929 166.857 52.3285C166.393 52.0607 166.049 51.7016 165.824 51.251C165.598 50.8005 165.486 50.2797 165.486 49.6888ZM166.916 49.1011H169.893C169.815 48.6799 169.648 48.3567 169.394 48.1314C169.142 47.9029 168.826 47.7886 168.444 47.7886C168.036 47.7886 167.698 47.9045 167.43 48.1363C167.166 48.3648 166.994 48.6864 166.916 49.1011ZM172.993 51.8877C172.442 51.3294 172.166 50.5964 172.166 49.6888C172.166 48.7811 172.442 48.0481 172.993 47.4898C173.545 46.9315 174.268 46.6524 175.163 46.6524C175.826 46.6524 176.397 46.8091 176.877 47.1225C177.357 47.4327 177.68 47.8637 177.847 48.4155L176.495 48.8268C176.387 48.5101 176.218 48.2653 175.986 48.0922C175.754 47.9159 175.473 47.8278 175.143 47.8278C174.673 47.8278 174.301 47.9959 174.027 48.3322C173.752 48.6685 173.615 49.1207 173.615 49.6888C173.615 50.2569 173.752 50.7091 174.027 51.0453C174.301 51.3816 174.673 51.5498 175.143 51.5498C175.47 51.5498 175.749 51.4633 175.981 51.2902C176.216 51.1172 176.394 50.8707 176.515 50.5507L177.847 50.9621C177.68 51.5139 177.357 51.9465 176.877 52.2599C176.397 52.5701 175.826 52.7251 175.163 52.7251C174.268 52.7251 173.545 52.446 172.993 51.8877ZM178.944 52.6272V46.7503H184.311V52.6272H182.901V48.0237H180.354V52.6272H178.944ZM185.291 46.7503H186.838L188.719 51.3931L190.169 46.7503H191.638L189.542 52.7056C189.32 53.3389 189.024 53.8271 188.655 54.1699C188.29 54.5127 187.854 54.6841 187.348 54.6841C187.086 54.6841 186.85 54.6498 186.638 54.5813C186.429 54.5127 186.256 54.4213 186.118 54.307C185.981 54.196 185.865 54.0621 185.771 53.9054C185.676 53.7487 185.607 53.5855 185.565 53.4157C185.523 53.2492 185.496 53.0712 185.487 52.8819L186.78 52.6468C186.789 52.9047 186.84 53.1022 186.931 53.2394C187.023 53.3798 187.175 53.45 187.387 53.45C187.625 53.45 187.841 53.2867 188.033 52.9602L185.291 46.7503ZM192.245 49.3166C192.245 48.2098 192.46 47.3462 192.891 46.7259C193.322 46.1023 193.988 45.6925 194.89 45.4966L196.28 45.1832C196.489 45.144 196.613 45.0199 196.653 44.811L196.711 44.5955L198.044 44.8306L198.024 45.0461C197.975 45.4215 197.844 45.7186 197.632 45.9374C197.42 46.1561 197.12 46.3161 196.731 46.4173L194.988 46.7699C194.468 46.8777 194.088 47.0589 193.846 47.3135C193.605 47.5649 193.469 47.9257 193.44 48.3959C193.646 48.0824 193.93 47.8408 194.292 47.671C194.658 47.5013 195.079 47.4164 195.556 47.4164C196.31 47.4164 196.925 47.6596 197.402 48.1461C197.882 48.6293 198.122 49.248 198.122 50.0022C198.122 50.8054 197.851 51.46 197.309 51.9661C196.767 52.4721 196.065 52.7251 195.203 52.7251C194.282 52.7251 193.559 52.4215 193.033 51.8142C192.508 51.207 192.245 50.3744 192.245 49.3166ZM193.714 49.9826C193.714 50.4528 193.851 50.8315 194.126 51.1188C194.403 51.4061 194.762 51.5498 195.203 51.5498C195.65 51.5498 196.003 51.411 196.261 51.1335C196.522 50.8527 196.653 50.4756 196.653 50.0022C196.653 49.5125 196.524 49.1288 196.266 48.8513C196.008 48.5738 195.654 48.435 195.203 48.435C194.743 48.435 194.379 48.5738 194.111 48.8513C193.846 49.1256 193.714 49.5027 193.714 49.9826ZM198.514 52.6272V51.3539H198.847C199.016 51.3539 199.141 51.3196 199.219 51.251C199.297 51.1792 199.356 51.0307 199.395 50.8054C199.434 50.5801 199.454 50.2275 199.454 49.7475V46.7503H204.371V52.6272H202.96V48.0237H200.845V49.9043C200.845 50.6062 200.786 51.158 200.669 51.5596C200.554 51.9579 200.375 52.2419 200.13 52.4117C199.885 52.5815 199.549 52.6664 199.121 52.6664C198.925 52.6664 198.723 52.6533 198.514 52.6272ZM206.114 45.9668V44.713H207.642V45.9668H206.114ZM206.173 52.6272V46.7503H207.584V52.6272H206.173ZM209.386 52.6272V46.7503H210.796V51.3539H213.284V46.7503H214.695V51.3539H215.478V53.9985H214.127V52.6272H209.386ZM216.693 45.9668V44.713H218.221V45.9668H216.693ZM216.751 52.6272V46.7503H218.162V52.6272H216.751ZM223.294 52.6272V45.1832H229.641V52.6272H228.133V46.5544H224.803V52.6272H223.294ZM231.111 49.6888C231.111 48.7811 231.39 48.0481 231.948 47.4898C232.51 46.9315 233.243 46.6524 234.147 46.6524C235.068 46.6524 235.804 46.9283 236.356 47.4801C236.907 48.0318 237.183 48.7681 237.183 49.6888C237.183 50.5964 236.903 51.3294 236.341 51.8877C235.783 52.446 235.051 52.7251 234.147 52.7251C233.226 52.7251 232.49 52.4493 231.938 51.8975C231.386 51.3457 231.111 50.6095 231.111 49.6888ZM232.986 48.3273C232.702 48.6571 232.56 49.1109 232.56 49.6888C232.56 50.2667 232.702 50.7221 232.986 51.0551C233.27 51.3849 233.657 51.5498 234.147 51.5498C234.637 51.5498 235.024 51.3849 235.308 51.0551C235.592 50.7221 235.734 50.2667 235.734 49.6888C235.734 49.1109 235.592 48.6571 235.308 48.3273C235.024 47.9943 234.637 47.8278 234.147 47.8278C233.657 47.8278 233.27 47.9943 232.986 48.3273ZM237.673 52.6272V51.3539H238.006C238.176 51.3539 238.3 51.3196 238.378 51.251C238.457 51.1792 238.515 51.0307 238.555 50.8054C238.594 50.5801 238.613 50.2275 238.613 49.7475V46.7503H243.53V52.6272H242.12V48.0237H240.004V49.9043C240.004 50.6062 239.945 51.158 239.828 51.5596C239.714 51.9579 239.534 52.2419 239.289 52.4117C239.044 52.5815 238.708 52.6664 238.28 52.6664C238.084 52.6664 237.882 52.6533 237.673 52.6272ZM245.235 52.6272V46.7503H246.645V48.8268H248.114C248.8 48.8268 249.34 48.9966 249.735 49.3362C250.13 49.6757 250.328 50.1393 250.328 50.727C250.328 51.3114 250.129 51.7751 249.73 52.1179C249.332 52.4574 248.793 52.6272 248.114 52.6272H245.235ZM246.645 51.5106H247.918C248.235 51.5106 248.477 51.442 248.643 51.3049C248.813 51.1678 248.898 50.9686 248.898 50.7074C248.898 50.4528 248.813 50.2585 248.643 50.1246C248.473 49.9908 248.232 49.9238 247.918 49.9238H246.645V51.5106ZM251.503 52.6272V46.7503H252.914V51.3539H254.892V46.7503H256.303V51.3539H258.281V46.7503H259.692V51.3539H260.475V53.9985H259.124V52.6272H251.503ZM261.083 51.0013C261.083 50.7956 261.11 50.6062 261.166 50.4332C261.221 50.2601 261.293 50.1132 261.381 49.9924C261.473 49.8716 261.589 49.7622 261.729 49.6643C261.869 49.5663 262.008 49.488 262.145 49.4292C262.282 49.3672 262.442 49.3117 262.625 49.2627C262.808 49.2137 262.971 49.1778 263.115 49.155C263.259 49.1288 263.424 49.1043 263.61 49.0815C263.753 49.0619 263.872 49.0456 263.967 49.0325C264.065 49.0162 264.166 48.9966 264.271 48.9738C264.375 48.9509 264.46 48.9264 264.525 48.9003C264.591 48.8709 264.651 48.8383 264.707 48.8023C264.762 48.7632 264.801 48.7191 264.824 48.6701C264.85 48.6179 264.863 48.5591 264.863 48.4938C264.863 48.2849 264.761 48.1183 264.555 47.9943C264.352 47.8702 264.077 47.8082 263.727 47.8082C263.1 47.8082 262.545 48.0498 262.062 48.533L261.22 47.6515C261.925 46.9854 262.787 46.6524 263.806 46.6524C264.547 46.6524 265.126 46.8271 265.544 47.1764C265.965 47.5225 266.176 48.0008 266.176 48.6113V51.06C266.176 51.2951 266.293 51.4126 266.528 51.4126H266.764V52.6272C266.633 52.6533 266.463 52.6664 266.254 52.6664C265.892 52.6664 265.614 52.5945 265.422 52.4509C265.229 52.3072 265.108 52.0787 265.059 51.7653C264.84 52.0624 264.55 52.2974 264.188 52.4705C263.825 52.6403 263.43 52.7251 263.002 52.7251C262.431 52.7251 261.967 52.5668 261.611 52.2501C261.259 51.9334 261.083 51.5171 261.083 51.0013ZM262.454 50.8837C262.454 51.109 262.527 51.2869 262.674 51.4175C262.824 51.5449 263.032 51.6085 263.296 51.6085C263.717 51.6085 264.077 51.4861 264.374 51.2412C264.674 50.9931 264.824 50.6976 264.824 50.3548V49.7475C264.658 49.8455 264.305 49.9369 263.766 50.0218C263.329 50.1001 263.035 50.1736 262.885 50.2422C262.597 50.376 262.454 50.5899 262.454 50.8837Z" fill="#6E6E6E"/>
</g>
<defs>
<clipPath id="clip0_10_616">
<rect width="265.791" height="55.9999" fill="white"/>
</clipPath>
</defs>
</svg>
