<svg width="20" height="20" viewBox="0 0 20 20" fill="none" xmlns="http://www.w3.org/2000/svg">
<path d="M11.6667 1.66675C11.6667 1.66675 13.5 1.83341 15.8333 4.16675C18.1667 6.50008 18.3333 8.33341 18.3333 8.33341" stroke="#1C274C" stroke-linecap="round"/>
<path d="M11.8392 4.61304C11.8392 4.61304 12.6641 4.84874 13.9016 6.08618C15.139 7.32361 15.3747 8.14857 15.3747 8.14857" stroke="#1C1F1C" stroke-linecap="round"/>
<path d="M8.36465 4.43006L8.9055 5.39917C9.39358 6.27374 9.19765 7.42102 8.42892 8.18975C8.42892 8.18975 8.42892 8.18975 8.42892 8.18975C8.4288 8.18987 7.49658 9.12231 9.18709 10.8128C10.8769 12.5027 11.8093 11.5718 11.8102 11.571C11.8102 11.571 11.8102 11.571 11.8102 11.571C12.5789 10.8023 13.7262 10.6063 14.6007 11.0944L15.5699 11.6353C16.8905 12.3723 17.0464 14.2243 15.8856 15.3851C15.1881 16.0826 14.3337 16.6253 13.3891 16.6611C11.799 16.7214 9.09856 16.319 6.38975 13.6102C3.68093 10.9014 3.27851 8.20094 3.33879 6.61082C3.3746 5.66625 3.91733 4.81178 4.61483 4.11428C5.77562 2.95349 7.62764 3.10945 8.36465 4.43006Z" stroke="#1C1F1C" stroke-linecap="round"/>
</svg>
