<svg width="60" height="60" viewBox="0 0 60 60" fill="none" xmlns="http://www.w3.org/2000/svg">
<g filter="url(#filter0_bd_1_515)">
<rect x="10" y="7" width="40" height="40" rx="20" fill="white" fill-opacity="0.08" shape-rendering="crispEdges"/>
<path d="M37.0832 22H22.9165" stroke="white" stroke-width="1.5" stroke-linecap="round"/>
<path d="M35.6946 24.0833L35.3113 29.8326C35.1638 32.045 35.09 33.1512 34.3692 33.8256C33.6483 34.5 32.5397 34.5 30.3223 34.5H29.6779C27.4605 34.5 26.3519 34.5 25.631 33.8256C24.9102 33.1512 24.8364 32.045 24.6889 29.8326L24.3057 24.0833" stroke="white" stroke-width="1.5" stroke-linecap="round"/>
<path d="M25.4167 22C25.4633 22 25.4866 22 25.5077 21.9995C26.1939 21.9821 26.7993 21.5458 27.0328 20.9003C27.0399 20.8804 27.0473 20.8583 27.062 20.8141L27.1429 20.5714C27.212 20.3642 27.2465 20.2606 27.2923 20.1727C27.4751 19.8217 27.8132 19.578 28.2039 19.5156C28.3019 19.5 28.4111 19.5 28.6295 19.5H31.3707C31.5891 19.5 31.6983 19.5 31.7962 19.5156C32.187 19.578 32.5251 19.8217 32.7078 20.1727C32.7536 20.2606 32.7882 20.3642 32.8572 20.5714L32.9381 20.8141C32.9528 20.8583 32.9602 20.8804 32.9674 20.9003C33.2009 21.5458 33.8063 21.9821 34.4925 21.9995C34.5136 22 34.5368 22 34.5834 22" stroke="white" stroke-width="1.5"/>
</g>
<defs>
<filter id="filter0_bd_1_515" x="-8" y="-11" width="76" height="76" filterUnits="userSpaceOnUse" color-interpolation-filters="sRGB">
<feFlood flood-opacity="0" result="BackgroundImageFix"/>
<feGaussianBlur in="BackgroundImageFix" stdDeviation="9"/>
<feComposite in2="SourceAlpha" operator="in" result="effect1_backgroundBlur_1_515"/>
<feColorMatrix in="SourceAlpha" type="matrix" values="0 0 0 0 0 0 0 0 0 0 0 0 0 0 0 0 0 0 127 0" result="hardAlpha"/>
<feOffset dy="3"/>
<feGaussianBlur stdDeviation="5"/>
<feComposite in2="hardAlpha" operator="out"/>
<feColorMatrix type="matrix" values="0 0 0 0 0 0 0 0 0 0 0 0 0 0 0 0 0 0 0.03 0"/>
<feBlend mode="normal" in2="effect1_backgroundBlur_1_515" result="effect2_dropShadow_1_515"/>
<feBlend mode="normal" in="SourceGraphic" in2="effect2_dropShadow_1_515" result="shape"/>
</filter>
</defs>
</svg>
