<svg width="21" height="20" viewBox="0 0 21 20" fill="none" xmlns="http://www.w3.org/2000/svg">
<g clip-path="url(#clip0_14_1812)">
<path d="M20.9302 10C20.9302 4.4772 16.453 0 10.9302 0C5.40738 0 0.930176 4.4772 0.930176 10C0.930176 14.6896 4.15898 18.6248 8.51458 19.7056V13.056H6.45258V10H8.51458V8.6832C8.51458 5.2796 10.055 3.702 13.3966 3.702C14.0302 3.702 15.1234 3.8264 15.5706 3.9504V6.7204C15.3346 6.6956 14.9246 6.6832 14.4154 6.6832C12.7758 6.6832 12.1422 7.3044 12.1422 8.9192V10H15.4086L14.8474 13.056H12.1422V19.9268C17.0938 19.3288 20.9306 15.1128 20.9306 10H20.9302Z" fill="#0866FF"/>
<path d="M14.8469 13.0559L15.4081 9.9999H12.1417V8.9191C12.1417 7.3043 12.7753 6.6831 14.4149 6.6831C14.9241 6.6831 15.3341 6.6955 15.5701 6.7203V3.9503C15.1229 3.8259 14.0297 3.7019 13.3961 3.7019C10.0545 3.7019 8.51415 5.2795 8.51415 8.6831V9.9999H6.45215V13.0559H8.51415V19.7055C9.28775 19.8975 10.0969 19.9999 10.9297 19.9999C11.3397 19.9999 11.7441 19.9747 12.1413 19.9267V13.0559H14.8465H14.8469Z" fill="white"/>
</g>
<defs>
<clipPath id="clip0_14_1812">
<rect width="20" height="20" fill="white" transform="translate(0.930176)"/>
</clipPath>
</defs>
</svg>
