<svg width="21" height="21" viewBox="0 0 21 21" fill="none" xmlns="http://www.w3.org/2000/svg">
<g clip-path="url(#clip0_1_346)">
<path d="M10.7631 0.5C5.24026 0.5 0.763062 4.9772 0.763062 10.5C0.763062 15.1896 3.99186 19.1248 8.34746 20.2056V13.556H6.28546V10.5H8.34746V9.1832C8.34746 5.7796 9.88786 4.202 13.2295 4.202C13.8631 4.202 14.9563 4.3264 15.4035 4.4504V7.2204C15.1675 7.1956 14.7575 7.1832 14.2483 7.1832C12.6087 7.1832 11.9751 7.8044 11.9751 9.4192V10.5H15.2415L14.6803 13.556H11.9751V20.4268C16.9267 19.8288 20.7635 15.6128 20.7635 10.5C20.7631 4.9772 16.2859 0.5 10.7631 0.5Z" fill="#464646"/>
</g>
<defs>
<clipPath id="clip0_1_346">
<rect width="20" height="20" fill="white" transform="translate(0.763062 0.5)"/>
</clipPath>
</defs>
</svg>
