<svg width="21" height="21" viewBox="0 0 21 21" fill="none" xmlns="http://www.w3.org/2000/svg">
<g clip-path="url(#clip0_1_344)">
<path d="M10.7631 2.30078C13.4349 2.30078 13.7513 2.3125 14.8021 2.35937C15.7787 2.40234 16.306 2.56641 16.6576 2.70313C17.1224 2.88281 17.4584 3.10156 17.806 3.44922C18.1576 3.80078 18.3724 4.13281 18.5521 4.59766C18.6888 4.94922 18.8529 5.48047 18.8959 6.45312C18.9428 7.50781 18.9545 7.82422 18.9545 10.4922C18.9545 13.1641 18.9428 13.4805 18.8959 14.5313C18.8529 15.5078 18.6888 16.0352 18.5521 16.3867C18.3724 16.8516 18.1537 17.1875 17.806 17.5352C17.4545 17.8867 17.1224 18.1016 16.6576 18.2813C16.306 18.418 15.7748 18.582 14.8021 18.625C13.7474 18.6719 13.431 18.6836 10.7631 18.6836C8.09119 18.6836 7.77478 18.6719 6.724 18.625C5.74744 18.582 5.22009 18.418 4.86853 18.2813C4.40369 18.1016 4.06775 17.8828 3.72009 17.5352C3.36853 17.1836 3.15369 16.8516 2.974 16.3867C2.83728 16.0352 2.67322 15.5039 2.63025 14.5313C2.58337 13.4766 2.57166 13.1602 2.57166 10.4922C2.57166 7.82031 2.58337 7.50391 2.63025 6.45312C2.67322 5.47656 2.83728 4.94922 2.974 4.59766C3.15369 4.13281 3.37244 3.79688 3.72009 3.44922C4.07166 3.09766 4.40369 2.88281 4.86853 2.70313C5.22009 2.56641 5.75134 2.40234 6.724 2.35937C7.77478 2.3125 8.09119 2.30078 10.7631 2.30078ZM10.7631 0.5C8.04822 0.5 7.70837 0.511719 6.64197 0.558594C5.57947 0.605469 4.849 0.777344 4.21619 1.02344C3.55603 1.28125 2.99744 1.62109 2.44275 2.17969C1.88416 2.73438 1.54431 3.29297 1.2865 3.94922C1.04041 4.58594 0.86853 5.3125 0.821655 6.375C0.77478 7.44531 0.763062 7.78516 0.763062 10.5C0.763062 13.2148 0.77478 13.5547 0.821655 14.6211C0.86853 15.6836 1.04041 16.4141 1.2865 17.0469C1.54431 17.707 1.88416 18.2656 2.44275 18.8203C2.99744 19.375 3.55603 19.7188 4.21228 19.9727C4.849 20.2188 5.57556 20.3906 6.63806 20.4375C7.70447 20.4844 8.04431 20.4961 10.7592 20.4961C13.474 20.4961 13.8138 20.4844 14.8803 20.4375C15.9428 20.3906 16.6732 20.2188 17.306 19.9727C17.9623 19.7188 18.5209 19.375 19.0756 18.8203C19.6303 18.2656 19.974 17.707 20.2279 17.0508C20.474 16.4141 20.6459 15.6875 20.6928 14.625C20.7396 13.5586 20.7513 13.2188 20.7513 10.5039C20.7513 7.78906 20.7396 7.44922 20.6928 6.38281C20.6459 5.32031 20.474 4.58984 20.2279 3.95703C19.9818 3.29297 19.642 2.73438 19.0834 2.17969C18.5287 1.625 17.9701 1.28125 17.3138 1.02734C16.6771 0.78125 15.9506 0.609375 14.8881 0.5625C13.8177 0.511719 13.4779 0.5 10.7631 0.5Z" fill="#464646"/>
<path d="M10.7631 5.36328C7.92712 5.36328 5.62634 7.66406 5.62634 10.5C5.62634 13.3359 7.92712 15.6367 10.7631 15.6367C13.599 15.6367 15.8998 13.3359 15.8998 10.5C15.8998 7.66406 13.599 5.36328 10.7631 5.36328ZM10.7631 13.832C8.92322 13.832 7.43103 12.3398 7.43103 10.5C7.43103 8.66016 8.92322 7.16797 10.7631 7.16797C12.6029 7.16797 14.0951 8.66016 14.0951 10.5C14.0951 12.3398 12.6029 13.832 10.7631 13.832Z" fill="#464646"/>
<path d="M17.3021 5.16016C17.3021 5.82422 16.7631 6.35938 16.1029 6.35938C15.4388 6.35938 14.9037 5.82031 14.9037 5.16016C14.9037 4.49609 15.4427 3.96094 16.1029 3.96094C16.7631 3.96094 17.3021 4.5 17.3021 5.16016Z" fill="#464646"/>
</g>
<defs>
<clipPath id="clip0_1_344">
<rect width="20" height="20" fill="white" transform="translate(0.763062 0.5)"/>
</clipPath>
</defs>
</svg>
