<svg width="21" height="20" viewBox="0 0 21 20" fill="none" xmlns="http://www.w3.org/2000/svg">
<g clip-path="url(#clip0_14_1811)">
<path d="M10.9302 1.80078C13.6021 1.80078 13.9185 1.8125 14.9692 1.85937C15.9458 1.90234 16.4731 2.06641 16.8247 2.20313C17.2896 2.38281 17.6255 2.60156 17.9731 2.94922C18.3247 3.30078 18.5396 3.63281 18.7192 4.09766C18.856 4.44922 19.02 4.98047 19.063 5.95313C19.1099 7.00781 19.1216 7.32422 19.1216 9.99219C19.1216 12.6641 19.1099 12.9805 19.063 14.0313C19.02 15.0078 18.856 15.5352 18.7192 15.8867C18.5396 16.3516 18.3208 16.6875 17.9731 17.0352C17.6216 17.3867 17.2896 17.6016 16.8247 17.7813C16.4731 17.918 15.9419 18.082 14.9692 18.125C13.9146 18.1719 13.5981 18.1836 10.9302 18.1836C8.2583 18.1836 7.9419 18.1719 6.89111 18.125C5.91455 18.082 5.38721 17.918 5.03564 17.7813C4.5708 17.6016 4.23486 17.3828 3.88721 17.0352C3.53564 16.6836 3.3208 16.3516 3.14111 15.8867C3.00439 15.5352 2.84033 15.0039 2.79736 14.0313C2.75049 12.9766 2.73877 12.6602 2.73877 9.99219C2.73877 7.32031 2.75049 7.00391 2.79736 5.95313C2.84033 4.97656 3.00439 4.44922 3.14111 4.09766C3.3208 3.63281 3.53955 3.29688 3.88721 2.94922C4.23877 2.59766 4.5708 2.38281 5.03564 2.20313C5.38721 2.06641 5.91846 1.90234 6.89111 1.85937C7.9419 1.8125 8.2583 1.80078 10.9302 1.80078ZM10.9302 0C8.21533 0 7.87549 0.0117187 6.80908 0.0585938C5.74658 0.105469 5.01611 0.277344 4.3833 0.523437C3.72314 0.78125 3.16455 1.12109 2.60986 1.67969C2.05127 2.23438 1.71143 2.79297 1.45361 3.44922C1.20752 4.08594 1.03564 4.8125 0.98877 5.875C0.941895 6.94531 0.930176 7.28516 0.930176 10C0.930176 12.7148 0.941895 13.0547 0.98877 14.1211C1.03564 15.1836 1.20752 15.9141 1.45361 16.5469C1.71143 17.207 2.05127 17.7656 2.60986 18.3203C3.16455 18.875 3.72314 19.2188 4.3794 19.4727C5.01611 19.7188 5.74268 19.8906 6.80518 19.9375C7.87158 19.9844 8.21143 19.9961 10.9263 19.9961C13.6411 19.9961 13.981 19.9844 15.0474 19.9375C16.1099 19.8906 16.8403 19.7188 17.4731 19.4727C18.1294 19.2188 18.688 18.875 19.2427 18.3203C19.7974 17.7656 20.1411 17.207 20.395 16.5508C20.6411 15.9141 20.813 15.1875 20.8599 14.125C20.9067 13.0586 20.9185 12.7188 20.9185 10.0039C20.9185 7.28906 20.9067 6.94922 20.8599 5.88281C20.813 4.82031 20.6411 4.08984 20.395 3.45703C20.1489 2.79297 19.8091 2.23438 19.2505 1.67969C18.6958 1.125 18.1372 0.78125 17.481 0.527344C16.8442 0.28125 16.1177 0.109375 15.0552 0.0625C13.9849 0.0117188 13.645 0 10.9302 0Z" fill="url(#paint0_linear_14_1811)"/>
<path d="M10.9302 4.86328C8.09424 4.86328 5.79346 7.16406 5.79346 10C5.79346 12.8359 8.09424 15.1367 10.9302 15.1367C13.7661 15.1367 16.0669 12.8359 16.0669 10C16.0669 7.16406 13.7661 4.86328 10.9302 4.86328ZM10.9302 13.332C9.09033 13.332 7.59814 11.8398 7.59814 10C7.59814 8.16016 9.09033 6.66797 10.9302 6.66797C12.77 6.66797 14.2622 8.16016 14.2622 10C14.2622 11.8398 12.77 13.332 10.9302 13.332Z" fill="url(#paint1_linear_14_1811)"/>
<path d="M17.4692 4.66016C17.4692 5.32422 16.9302 5.85938 16.27 5.85938C15.606 5.85938 15.0708 5.32032 15.0708 4.66016C15.0708 3.99609 15.6099 3.46094 16.27 3.46094C16.9302 3.46094 17.4692 4 17.4692 4.66016Z" fill="url(#paint2_linear_14_1811)"/>
</g>
<defs>
<linearGradient id="paint0_linear_14_1811" x1="14" y1="-2.07223e-07" x2="2.5" y2="19" gradientUnits="userSpaceOnUse">
<stop stop-color="#B305EE"/>
<stop offset="1" stop-color="#FEB100"/>
</linearGradient>
<linearGradient id="paint1_linear_14_1811" x1="13" y1="5" x2="8" y2="15" gradientUnits="userSpaceOnUse">
<stop stop-color="#B305EE"/>
<stop offset="1" stop-color="#FEB100"/>
</linearGradient>
<linearGradient id="paint2_linear_14_1811" x1="16.27" y1="3.46094" x2="16.27" y2="5.85938" gradientUnits="userSpaceOnUse">
<stop stop-color="#B305EE"/>
<stop offset="1" stop-color="#FEB100"/>
</linearGradient>
<clipPath id="clip0_14_1811">
<rect width="20" height="20" fill="white" transform="translate(0.930176)"/>
</clipPath>
</defs>
</svg>
