<svg width="21" height="21" viewBox="0 0 21 21" fill="none" xmlns="http://www.w3.org/2000/svg">
<g clip-path="url(#clip0_1_345)">
<path d="M19.2826 0.5H2.23962C1.42322 0.5 0.763062 1.14453 0.763062 1.94141V19.0547C0.763062 19.8516 1.42322 20.5 2.23962 20.5H19.2826C20.099 20.5 20.7631 19.8516 20.7631 19.0586V1.94141C20.7631 1.14453 20.099 0.5 19.2826 0.5ZM6.69665 17.543H3.72791V7.99609H6.69665V17.543ZM5.21228 6.69531C4.25916 6.69531 3.48962 5.92578 3.48962 4.97656C3.48962 4.02734 4.25916 3.25781 5.21228 3.25781C6.1615 3.25781 6.93103 4.02734 6.93103 4.97656C6.93103 5.92188 6.1615 6.69531 5.21228 6.69531ZM17.806 17.543H14.8412V12.9023C14.8412 11.7969 14.8217 10.3711 13.2982 10.3711C11.7552 10.3711 11.5209 11.5781 11.5209 12.8242V17.543H8.55994V7.99609H11.4037V9.30078H11.4427C11.8373 8.55078 12.806 7.75781 14.2474 7.75781C17.2513 7.75781 17.806 9.73438 17.806 12.3047V17.543Z" fill="#464646"/>
</g>
<defs>
<clipPath id="clip0_1_345">
<rect width="20" height="20" fill="white" transform="translate(0.763062 0.5)"/>
</clipPath>
</defs>
</svg>
