<svg width="21" height="20" viewBox="0 0 21 20" fill="none" xmlns="http://www.w3.org/2000/svg">
<path d="M19.4538 0H2.40656C2.015 0 1.63948 0.155548 1.3626 0.432425C1.08572 0.709301 0.930176 1.08483 0.930176 1.47639V18.5236C0.930176 18.9152 1.08572 19.2907 1.3626 19.5676C1.63948 19.8445 2.015 20 2.40656 20H19.4538C19.8453 20 20.2209 19.8445 20.4978 19.5676C20.7746 19.2907 20.9302 18.9152 20.9302 18.5236V1.47639C20.9302 1.08483 20.7746 0.709301 20.4978 0.432425C20.2209 0.155548 19.8453 0 19.4538 0ZM6.89129 17.0375H3.88434V7.48611H6.89129V17.0375ZM5.38573 6.1625C5.04465 6.16058 4.71177 6.05766 4.42912 5.86674C4.14647 5.67582 3.92671 5.40544 3.79757 5.08974C3.66844 4.77404 3.63572 4.42716 3.70353 4.09288C3.77135 3.7586 3.93668 3.4519 4.17864 3.21148C4.4206 2.97107 4.72835 2.80772 5.06306 2.74205C5.39777 2.67638 5.74444 2.71133 6.0593 2.84249C6.37417 2.97365 6.64313 3.19514 6.83223 3.47901C7.02133 3.76288 7.12211 4.09641 7.12184 4.4375C7.12506 4.66586 7.08227 4.89253 6.99602 5.104C6.90977 5.31547 6.78183 5.50742 6.61982 5.66839C6.45781 5.82936 6.26505 5.95607 6.05303 6.04096C5.84101 6.12585 5.61407 6.16718 5.38573 6.1625ZM17.9746 17.0458H14.9691V11.8278C14.9691 10.2889 14.3149 9.81389 13.4705 9.81389C12.5788 9.81389 11.7038 10.4861 11.7038 11.8667V17.0458H8.69684V7.49306H11.5885V8.81667H11.6274C11.9177 8.22917 12.9343 7.225 14.4857 7.225C16.1635 7.225 17.976 8.22083 17.976 11.1375L17.9746 17.0458Z" fill="#0A66C2"/>
</svg>
