<svg width="114" height="87" viewBox="0 0 114 87" fill="none" xmlns="http://www.w3.org/2000/svg">
<path d="M0 87V46.7222C0 31.1481 3.51852 19.4676 10.5556 11.6806C17.5926 3.89352 27.2685 0 39.5833 0H46.4444V20.9444H41.6944C35.713 20.9444 31.2708 22.466 28.3681 25.5093C25.5532 28.463 24.0139 33.2068 23.75 39.7407H46.4444V87H0ZM67.5556 87V46.7222C67.5556 31.1481 71.0741 19.4676 78.1111 11.6806C85.1481 3.89352 94.8241 0 107.139 0H114V20.9444H109.25C103.269 20.9444 98.8264 22.466 95.9236 25.5093C93.1088 28.463 91.5694 33.2068 91.3055 39.7407H114V87H67.5556Z" fill="url(#paint0_linear_1_247)" fill-opacity="0.3"/>
<defs>
<linearGradient id="paint0_linear_1_247" x1="70.4939" y1="-20.5417" x2="129.621" y2="94.4441" gradientUnits="userSpaceOnUse">
<stop stop-color="#245DAA"/>
<stop offset="1" stop-color="#E0D29D"/>
</linearGradient>
</defs>
</svg>
