<svg width="44" height="44" viewBox="0 0 44 44" fill="none" xmlns="http://www.w3.org/2000/svg">
<path d="M40.48 11.6948C40.3221 11.4606 40.2036 11.1873 40.0456 10.9531H38.1105C38.3079 11.2654 38.5054 11.5777 38.7029 11.89C40.559 14.9347 41.5463 18.4089 41.5463 22.0002H43.1655C43.205 18.3308 42.2572 14.8176 40.48 11.6948Z" fill="#265FA3"/>
<path d="M21.6025 2.28698C22.6294 2.28698 23.6957 2.36505 24.7225 2.52119L24.9594 0.920737C23.8536 0.764594 22.7083 0.686523 21.6025 0.686523C9.67573 0.686523 0 10.2502 0 21.9999H1.6192C1.6192 11.148 10.5841 2.28698 21.6025 2.28698Z" fill="#265FA3"/>
<path d="M43.2051 22.0002H41.5859C41.5859 32.8521 32.621 41.7132 21.6025 41.7132C10.5841 41.7132 1.6192 32.8912 1.6192 22.0002H0C0 33.7499 9.67573 43.3136 21.6025 43.3136C33.5294 43.3136 43.2051 33.7499 43.2051 22.0002Z" fill="#FCC010"/>
<path d="M21.1681 9.74292C21.6815 10.0162 23.4586 11.1872 23.4586 13.2561C23.4586 15.0908 20.4572 20.5948 21.6025 22.0001L29.0666 12.8267C29.0666 12.8267 30.9228 15.0518 29.817 16.9255C28.6717 18.8772 25.7887 21.1803 24.6434 22.8979C23.9326 23.9519 24.288 24.5374 24.288 24.5374L33.3318 19.6579C33.3318 19.6579 34.0427 21.8049 32.3445 23.3273C30.5278 24.9277 26.2626 25.5913 26.2626 27.2699H32.463C32.463 27.2699 31.8311 29.1436 30.6068 29.3778C29.5405 29.612 27.2894 28.9874 26.2231 29.9633C25.0778 30.9782 23.8141 34.2572 20.0228 34.2572C17.4557 34.2572 15.5206 32.4616 14.2568 30.0804C12.8351 27.3479 11.2554 26.0207 9.59668 25.6694C9.59668 25.6694 10.505 23.6005 12.8351 23.6005C16.0735 23.6005 17.4557 28.8313 19.8648 28.8313C20.5757 28.8313 21.326 28.48 21.326 27.465C21.326 26.3721 19.7068 25.4352 19.2724 25.1229C18.2061 24.3812 17.3373 23.2102 17.8902 21.2584L21.1681 9.74292Z" fill="#265FA3"/>
<path d="M36.5703 0.686523C36.2543 1.03784 36.0568 1.50627 36.0568 1.9747C36.0568 3.06769 36.2148 4.16069 36.2148 5.25368C36.2543 6.2686 35.9384 7.24449 35.5434 8.18134C35.425 8.45459 35.267 8.68881 35.1485 8.96206L34.7536 8.88398C34.3982 8.80591 34.1612 8.45459 34.2402 8.10327C34.3192 7.79099 34.5956 7.55678 34.8721 7.55678H35.03L34.7141 4.86332C34.5956 3.65322 34.0032 2.6383 33.0554 1.93566C32.8974 1.81855 32.7395 1.70145 32.542 1.62338V11.148H34.7536C34.9116 12.0459 35.425 12.8266 36.0963 13.334C36.2543 13.4511 36.4123 13.6073 36.4913 13.7634C36.6097 13.6073 36.7282 13.4511 36.8862 13.334C37.5971 12.7875 38.071 12.0068 38.229 11.148H40.4405V1.66241C40.2826 1.74048 40.0851 1.85759 39.9271 1.9747C39.0188 2.6383 38.3869 3.69226 38.2684 4.90236L37.9525 7.59581H38.1105C38.4264 7.59581 38.7029 7.83002 38.7424 8.14231C38.8213 8.49363 38.5844 8.84495 38.229 8.92302L37.834 9.00109C37.7155 8.76688 37.5576 8.49363 37.4391 8.22038C37.0442 7.28353 36.7677 6.30764 36.7677 5.29272C36.7677 4.19972 36.9257 3.10673 36.9257 2.01373C37.0837 1.50627 36.8862 1.03784 36.5703 0.686523ZM33.2529 3.02866C33.6873 3.53612 33.9637 4.16069 34.0427 4.82429L34.3192 7.04931C33.9637 7.20546 33.7268 7.51774 33.6083 7.9081H33.2134V3.02866H33.2529ZM39.8876 3.02866V7.86906H39.4927C39.4137 7.4787 39.1373 7.20546 38.7818 7.01028L39.0583 4.78525C39.1768 4.16069 39.4927 3.53612 39.8876 3.02866ZM36.5703 7.4787C36.7677 8.06424 37.0047 8.61074 37.2811 9.1182C37.0047 9.19627 36.7282 9.39145 36.5703 9.58662C36.3728 9.35241 36.1358 9.19627 35.8199 9.1182C36.1358 8.61074 36.4123 8.06424 36.5703 7.4787ZM33.2529 8.5717H33.6478C33.7663 9.04013 34.1217 9.39145 34.5956 9.50855L34.9116 9.58662C34.8326 9.89891 34.7931 10.2112 34.7931 10.5625H33.2924V8.5717H33.2529ZM39.5322 8.5717H39.9271V10.5235H38.4264C38.4264 10.1722 38.3869 9.85987 38.3079 9.54759L38.6239 9.46952C39.0583 9.35241 39.4137 9.00109 39.5322 8.5717ZM35.5434 9.70373C35.9384 9.74277 36.2543 10.0941 36.2543 10.5235H35.425C35.425 10.2502 35.4645 9.97698 35.5434 9.70373ZM37.6366 9.70373C37.7155 9.97698 37.755 10.2502 37.755 10.5235H36.9257C36.9257 10.0941 37.2021 9.7818 37.6366 9.70373ZM35.5039 11.1871H36.2543V12.5533C35.8594 12.202 35.6224 11.6945 35.5039 11.1871ZM36.9257 11.1871H37.6761C37.5576 11.7336 37.2811 12.202 36.9257 12.5533V11.1871Z" fill="#265FA3"/>
</svg>
